# xmcd
#
# Track frame offsets:
#	150
#	16226
#	28980
#	44387
#	53785
#	68514
#	79137
#	88511
#	99909
#	112532
#	126094
#
# Disc length: 1817 seconds
# Revision: 0
# Processed by: cddbd v1.5.2PL0 Copyright (c) Steve Scherf et al.
# Submitted via: dBpowerAMP V12.0
#
DISCID=7b07170b
DTITLE=Jerry Lee Lewis - Country Memories
DYEAR=1900
DGENRE=
TTITLE0=Middle Age Crazy
TTITLE1=Lets Say Goodbye Like We Said Hello
TTITLE2=Who's Sorry Now
TTITLE3=Jealous Heart
TTITLE4=Georgia On My Mind
TTITLE5=Come On In
TTITLE6=As Long As We Live
TTITLE7=I'd Be Over You
TTITLE8=Country Memories
TTITLE9=Whats So Good About Goodbye
TTITLE10=Tennessee Saturday Night
EXTD=
EXTT0=
EXTT1=
EXTT2=
EXTT3=
EXTT4=
EXTT5=
EXTT6=
EXTT7=
EXTT8=
EXTT9=
EXTT10=
PLAYORDER=
